<svg id="Capa_1" enable-background="new 0 0 511.993 511.993" height="90" viewBox="0 0 511.993 511.993" width="90" xmlns="http://www.w3.org/2000/svg"><path d="m344.314 504.493h-312.756c-13.287 0-24.058-10.771-24.058-24.058v-312.756c0-13.287 10.771-24.058 24.058-24.058h312.756c13.287 0 24.058 10.771 24.058 24.058v312.756c0 13.286-10.771 24.058-24.058 24.058z" fill="#fff"/><path d="m248.081 263.911h-240.581v-96.233c0-13.287 10.771-24.058 24.058-24.058h216.523z" fill="#edf4ff"/><path d="m127.791 263.911h240.581v120.291h-240.581z" fill="#ffbfc2"/><path d="m127.791 504.493h-96.233c-13.287 0-24.058-10.771-24.058-24.058v-96.233h120.291z" fill="#ffbfc2"/><path d="m332.57 134.058-23.653 61.499c-1.81 4.706 2.814 9.329 7.519 7.519l61.499-23.653-9.562-35.802z" fill="#ffe09f"/><path d="m377.934 179.423-45.364-45.364 124.217-124.218c3.132-3.132 8.209-3.132 11.341 0l34.023 34.023c3.132 3.132 3.132 8.209 0 11.341z" fill="#ffc269"/><path d="m485.14 26.853-17.012-17.012c-3.132-3.132-8.209-3.132-11.341 0l-124.217 124.217 22.682 22.682z" fill="#ffa95f"/><path d="m319.81 167.233-10.894 28.324c-1.81 4.705 2.814 9.329 7.519 7.519l28.324-10.894z" fill="#ff8086"/><path d="m368.372 208.297c-4.142 0-7.5 3.358-7.5 7.5v40.614h-105.29v-105.291h40.614c4.142 0 7.5-3.358 7.5-7.5s-3.358-7.5-7.5-7.5h-264.638c-17.401 0-31.558 14.157-31.558 31.559v312.756c0 17.401 14.157 31.558 31.558 31.558h312.756c17.401 0 31.558-14.157 31.558-31.558v-264.638c0-4.142-3.358-7.5-7.5-7.5zm-7.5 63.114v105.291h-105.29v-105.291zm-225.581 105.291v-105.291h105.291v105.291zm105.291 15v105.291h-105.291v-105.291zm-225.582-120.291h105.291v105.291h-105.291zm225.582-15h-105.291v-105.291h105.291zm-209.024-105.291h88.732v105.291h-105.29v-88.732c0-9.131 7.428-16.559 16.558-16.559zm-16.558 329.314v-88.732h105.291v105.291h-88.733c-9.13 0-16.558-7.428-16.558-16.559zm329.314 16.559h-88.732v-105.291h105.291v88.732c-.001 9.131-7.429 16.559-16.559 16.559z"/><path d="m507.455 38.561-34.024-34.024c-6.051-6.05-15.896-6.05-21.947 0l-124.217 124.218c-.767.767-1.328 1.661-1.694 2.612l-.003-.001-28.353 73.717c-1.064 2.767-.399 5.9 1.697 7.996 1.433 1.433 3.351 2.197 5.305 2.197.904 0 1.816-.164 2.691-.5l73.717-28.353-.001-.003c.951-.365 1.845-.926 2.612-1.693l124.217-124.218c6.05-6.051 6.05-15.896 0-21.948zm-172.028 108.961 29.043 29.043-47.196 18.152zm161.421-97.619-118.914 118.913-12.076-12.076 15.836-15.836c2.929-2.929 2.929-7.678 0-10.606-2.929-2.929-7.678-2.929-10.606 0l-15.836 15.836-12.076-12.076 118.913-118.913c.203-.203.533-.203.735 0l11.708 11.708-79.387 79.387c-2.929 2.929-2.929 7.678 0 10.606 1.464 1.464 3.384 2.197 5.303 2.197s3.839-.732 5.303-2.197l79.387-79.387 11.708 11.708c.204.203.204.533.002.736z"/><path d="m198.543 324.057 22.765-22.765c2.929-2.929 2.929-7.678 0-10.606-2.929-2.929-7.678-2.929-10.606 0l-22.765 22.765-22.765-22.765c-2.929-2.929-7.678-2.929-10.606 0-2.929 2.929-2.929 7.678 0 10.606l22.765 22.765-22.765 22.765c-2.929 2.929-2.929 7.678 0 10.606 1.464 1.464 3.384 2.197 5.303 2.197s3.839-.732 5.303-2.197l22.765-22.765 22.765 22.765c1.464 1.464 3.384 2.197 5.303 2.197s3.839-.732 5.303-2.197c2.929-2.929 2.929-7.678 0-10.606z"/><path d="m297.62 324.057-22.765 22.765c-2.929 2.929-2.929 7.678 0 10.606 1.464 1.464 3.384 2.197 5.303 2.197s3.839-.732 5.303-2.197l22.765-22.765 22.765 22.765c1.464 1.464 3.384 2.197 5.303 2.197s3.839-.732 5.303-2.197c2.929-2.929 2.929-7.678 0-10.606l-22.765-22.765 22.765-22.765c2.929-2.929 2.929-7.678 0-10.606-2.929-2.929-7.678-2.929-10.606 0l-22.765 22.765-22.765-22.765c-2.929-2.929-7.678-2.929-10.606 0-2.929 2.929-2.929 7.678 0 10.606z"/><path d="m78.252 444.347 22.765-22.765c2.929-2.929 2.929-7.678 0-10.606-2.929-2.929-7.678-2.929-10.606 0l-22.765 22.765-22.765-22.765c-2.929-2.929-7.678-2.929-10.606 0-2.929 2.929-2.929 7.678 0 10.606l22.765 22.765-22.765 22.765c-2.929 2.929-2.929 7.678 0 10.606 1.464 1.464 3.384 2.197 5.303 2.197s3.839-.732 5.303-2.197l22.765-22.765 22.765 22.765c1.464 1.464 3.384 2.197 5.303 2.197s3.839-.732 5.303-2.197c2.929-2.929 2.929-7.678 0-10.606z"/><path d="m67.646 239.334c19.612 0 35.568-15.956 35.568-35.568s-15.956-35.568-35.568-35.568-35.568 15.956-35.568 35.568 15.955 35.568 35.568 35.568zm0-56.136c11.341 0 20.568 9.227 20.568 20.568s-9.227 20.568-20.568 20.568-20.568-9.227-20.568-20.568 9.226-20.568 20.568-20.568z"/><path d="m187.936 239.334c19.612 0 35.568-15.956 35.568-35.568s-15.956-35.568-35.568-35.568-35.568 15.956-35.568 35.568 15.956 35.568 35.568 35.568zm0-56.136c11.341 0 20.568 9.227 20.568 20.568s-9.227 20.568-20.568 20.568-20.568-9.227-20.568-20.568 9.227-20.568 20.568-20.568z"/><path d="m187.936 479.915c19.612 0 35.568-15.956 35.568-35.568s-15.956-35.568-35.568-35.568-35.568 15.956-35.568 35.568 15.956 35.568 35.568 35.568zm0-56.136c11.341 0 20.568 9.227 20.568 20.568s-9.227 20.568-20.568 20.568-20.568-9.227-20.568-20.568 9.227-20.568 20.568-20.568z"/></svg>